<svg width="992" height="807" viewBox="0 0 992 807" fill="none" xmlns="http://www.w3.org/2000/svg">
<path d="M354.994 240L372 272L257 375H205L354.994 240Z" fill="#FC60A8"/>
<path d="M637.006 240L620 272L735 375H787L637.006 240Z" fill="#FC60A8"/>
<path d="M278.681 141.511C274.546 120.658 286.596 104.696 308.351 102.331L560.935 68.872C579.153 66.4587 595.916 79.1671 598.513 97.3601L647.324 439.396C649.957 457.849 637.027 474.905 618.548 477.353L371.443 510.088C349.825 512.952 329.929 497.886 326.825 476.301L278.681 141.511Z" fill="url(#paint0_linear_13_2)"/>
<path d="M303.421 106.723C300.78 88.309 313.642 71.2672 332.075 68.7583L587.597 33.9787C605.81 31.4996 622.622 44.1542 625.278 62.3428L675.141 403.802C677.835 422.248 664.958 439.347 646.485 441.853L390.08 476.639C371.838 479.114 355.015 466.412 352.401 448.189L303.421 106.723Z" fill="white"/>
<g filter="url(#filter0_d_13_2)">
<path fill-rule="evenodd" clip-rule="evenodd" d="M589.857 50.582L334.334 85.3616C325.118 86.6161 318.687 95.137 320.008 104.344L368.988 445.81C370.295 454.921 378.706 461.272 387.827 460.035L644.233 425.248C653.469 423.995 659.907 415.446 658.561 406.223L608.697 64.7641C607.369 55.6698 598.963 49.3425 589.857 50.582ZM332.075 68.7583C313.642 71.2672 300.78 88.309 303.421 106.723L352.401 448.189C355.015 466.412 371.838 479.114 390.08 476.639L646.485 441.853C664.958 439.347 677.835 422.248 675.141 403.802L625.278 62.3428C622.622 44.1542 605.81 31.4996 587.597 33.9787L332.075 68.7583Z" fill="url(#paint1_linear_13_2)"/>
</g>
<mask id="mask0_13_2" style="mask-type:luminance" maskUnits="userSpaceOnUse" x="392" y="95" width="178" height="177">
<path d="M548.188 95.2919L392.865 117.117L414.531 271.299L569.854 249.474L548.188 95.2919Z" fill="white"/>
</mask>
<g mask="url(#mask0_13_2)">
<path d="M547.462 118.557L495.404 253.923C495.164 254.56 494.757 255.121 494.227 255.547C493.697 255.973 493.062 256.249 492.388 256.347C491.715 256.444 491.028 256.359 490.398 256.101C489.769 255.843 489.22 255.421 488.809 254.878L400.069 139.282C399.622 138.705 399.349 138.013 399.281 137.286C399.213 136.56 399.352 135.829 399.684 135.179C400.015 134.529 400.525 133.987 401.153 133.615C401.781 133.244 402.502 133.059 403.231 133.081L474.783 135.836C475.238 135.855 475.692 135.791 476.125 135.649L542.681 113.505C543.373 113.28 544.115 113.257 544.82 113.437C545.525 113.616 546.165 113.993 546.665 114.522C547.164 115.051 547.504 115.71 547.644 116.425C547.784 117.139 547.725 117.878 547.462 118.557Z" fill="url(#paint2_linear_13_2)"/>
<path d="M503.936 102.122L453.787 119.56C453.387 119.701 453.045 119.969 452.813 120.325C452.582 120.68 452.474 121.102 452.507 121.525L456.922 175.964C456.945 176.261 457.036 176.548 457.189 176.803C457.343 177.059 457.553 177.275 457.804 177.435C458.055 177.594 458.34 177.694 458.636 177.724C458.932 177.755 459.232 177.716 459.51 177.611L473.405 172.255C473.705 172.141 474.029 172.104 474.348 172.147C474.666 172.191 474.968 172.314 475.226 172.504C475.485 172.695 475.691 172.948 475.826 173.239C475.961 173.531 476.021 173.851 476 174.172L474.692 195.824C474.67 196.156 474.734 196.489 474.879 196.788C475.024 197.088 475.245 197.345 475.519 197.534C475.794 197.722 476.113 197.836 476.444 197.864C476.776 197.892 477.11 197.833 477.412 197.692L485.896 193.727C487.21 193.118 488.705 194.142 488.615 195.603L486.484 229.621C486.345 231.745 489.238 232.486 490.124 230.555L490.719 229.268L520.876 138.853C520.991 138.513 521.01 138.148 520.928 137.798C520.847 137.448 520.67 137.129 520.417 136.874C520.163 136.62 519.844 136.442 519.495 136.36C519.145 136.278 518.78 136.295 518.44 136.41L504.06 141.365C503.749 141.468 503.417 141.49 503.095 141.429C502.773 141.368 502.472 141.226 502.22 141.016C501.968 140.806 501.775 140.535 501.657 140.229C501.54 139.923 501.502 139.592 501.548 139.268L506.461 104.219C506.509 103.892 506.472 103.56 506.353 103.252C506.235 102.945 506.04 102.673 505.786 102.462C505.533 102.252 505.23 102.11 504.906 102.05C504.581 101.991 504.248 102.015 503.936 102.122Z" fill="url(#paint3_linear_13_2)"/>
</g>
<rect x="411.72" y="308.76" width="174.018" height="87.5375" rx="12" transform="rotate(-7.79917 411.72 308.76)" stroke="url(#paint4_linear_13_2)" stroke-width="8"/>
<path fill-rule="evenodd" clip-rule="evenodd" d="M534.771 306.404L552.575 304.747L556.24 333.777L573.52 332.206L551.527 362.577L521.156 338.49L538.436 336.395L534.771 306.404ZM432.661 320.686L449.941 318.591L470.887 336.919L486.119 313.166L504.4 311.26L511.207 367.813L493.403 369.908L489.214 336.919L474.552 361.006L454.131 343.726L457.796 375.668L440.516 377.763L432.661 320.686Z" fill="url(#paint5_linear_13_2)"/>
<path fill-rule="evenodd" clip-rule="evenodd" d="M787 375V459C787 503.183 751.183 539 707 539H598C553.817 539 518 503.183 518 459V406H474V459C474 503.183 438.183 539 394 539H285C240.817 539 205 503.183 205 459V375H787Z" fill="#FC60A8"/>
<path d="M204 659.087C220.497 659.09 236.995 659.329 253.485 659C262.022 658.83 268.93 665.593 268.778 674.431C268.512 689.834 268.681 705.243 268.739 720.649C268.746 722.327 268.382 722.924 266.584 722.913C250.807 722.844 235.031 722.884 219.258 722.866C212.141 722.859 206.923 719.333 204.778 713.145C204.465 712.255 204.256 711.319 204 710.4C204 701.97 204 693.537 204 685.107C221.038 685.11 238.076 685.103 255.11 685.15C256.555 685.154 257.128 684.796 257.074 683.248C256.966 680.062 257.059 676.869 257.031 673.679C257.013 671.661 256.223 670.833 254.205 670.735C252.829 670.666 251.445 670.713 250.068 670.71C234.714 670.692 219.355 670.674 204 670.656V659.087ZM256.951 696.893H215.964C215.87 697.16 215.762 697.323 215.759 697.49C215.737 700.918 215.715 704.346 215.723 707.775C215.73 710.425 216.49 711.167 219.182 711.17C231.114 711.178 243.049 711.174 254.98 711.17C255.614 711.17 256.252 711.105 256.948 711.069V696.893H256.951Z" fill="#494368"/>
<path d="M355.564 701.012C357.748 695.291 359.932 689.57 362.112 683.845C365.041 676.149 367.989 668.461 370.869 660.747C371.341 659.481 371.975 659.018 373.348 659.065C376.76 659.174 380.177 659.101 383.91 659.101C382.678 662.439 381.539 665.567 380.368 668.688C373.852 686.083 367.305 703.468 360.854 720.888C360.259 722.49 359.499 723.04 357.863 722.913C356.014 722.772 354.141 722.808 352.285 722.906C351.02 722.971 350.396 722.526 349.867 721.336C344.778 709.916 339.618 698.528 334.476 687.132C332.75 683.31 331.016 679.487 329.085 675.223C328.566 676.287 328.209 676.941 327.921 677.625C321.791 692.004 315.64 706.372 309.593 720.783C308.887 722.465 308.025 723.065 306.263 722.917C304.414 722.761 302.544 722.841 300.685 722.899C299.654 722.931 299.063 722.631 298.656 721.593C290.706 701.207 282.724 680.84 274.75 660.461C274.602 660.085 274.53 659.676 274.378 659.112C278.227 659.112 281.942 659.061 285.65 659.17C286.144 659.184 286.832 659.911 287.06 660.461C292.144 672.862 297.178 685.288 302.223 697.707C302.692 698.86 303.193 700.003 303.874 701.612C304.497 700.191 304.937 699.189 305.373 698.184C310.796 685.66 316.234 673.144 321.622 660.606C322.087 659.521 322.62 659.036 323.863 659.069C327.283 659.159 330.706 659.166 334.123 659.069C335.431 659.029 336.004 659.553 336.515 660.678C342.36 673.538 348.256 686.376 354.141 699.218C354.429 699.848 354.76 700.455 355.07 701.074L355.564 701.016V701.012Z" fill="#494368"/>
<path d="M669.723 722.863C666.029 722.863 662.562 722.888 659.096 722.819C658.782 722.812 658.353 722.219 658.205 721.814C658.051 721.387 658.162 720.863 658.162 720.382C658.162 705.146 658.162 689.91 658.162 674.67C658.162 671.376 657.524 670.717 654.292 670.714C646.728 670.706 639.164 670.703 631.604 670.714C628.501 670.717 627.834 671.412 627.834 674.572C627.834 689.87 627.834 705.167 627.834 720.465C627.834 721.174 627.834 721.883 627.834 722.863C624.133 722.863 620.613 722.884 617.092 722.823C616.786 722.819 616.353 722.317 616.227 721.955C616.072 721.528 616.18 721.004 616.18 720.523C616.18 700.828 616.18 681.136 616.18 661.441V659.101H618.512C644.505 659.101 670.497 659.26 696.487 659.007C704.414 658.931 711.798 664.844 711.712 674.341C711.571 689.819 711.651 705.298 711.708 720.772C711.715 722.407 711.301 723.007 709.607 722.913C707.092 722.776 704.562 722.783 702.047 722.913C700.436 722.996 700.036 722.447 700.04 720.87C700.097 705.753 700.076 690.637 700.072 675.52C700.072 674.916 700.083 674.316 700.068 673.712C700.011 671.694 699.265 670.84 697.254 670.743C695.398 670.652 693.535 670.706 691.672 670.706C685.611 670.706 679.546 670.696 673.485 670.71C670.479 670.717 669.733 671.462 669.733 674.446C669.726 689.743 669.733 705.041 669.733 720.338C669.733 721.105 669.733 721.868 669.733 722.863H669.723Z" fill="#494368"/>
<path d="M452.703 711.174C452.703 714.885 452.732 718.364 452.66 721.843C452.652 722.19 452.108 722.617 451.723 722.841C451.452 723 451.02 722.881 450.66 722.881C434.876 722.881 419.096 722.855 403.312 722.895C398.033 722.91 393.715 721.076 390.598 716.707C388.98 714.44 388.115 711.898 388.108 709.113C388.087 697.012 388.04 684.908 388.119 672.808C388.166 665.383 394.281 659.195 401.658 659.145C414.198 659.054 426.742 659.062 439.283 659.145C445.95 659.192 452.123 664.692 452.454 671.365C452.858 679.411 452.667 687.49 452.656 695.555C452.656 695.949 451.982 696.492 451.506 696.698C451.049 696.897 450.443 696.748 449.903 696.748C434 696.748 418.097 696.748 402.195 696.748C400.525 696.748 399.689 697.609 399.687 699.331C399.687 702.101 399.665 704.871 399.697 707.637C399.733 710.465 400.451 711.171 403.24 711.171C418.901 711.174 434.566 711.171 450.227 711.171C450.944 711.171 451.658 711.171 452.699 711.171L452.703 711.174ZM420.364 685.14C426.66 685.14 432.955 685.107 439.251 685.165C440.642 685.179 441.164 684.782 441.117 683.324C441.02 680.2 441.103 677.068 441.081 673.94C441.063 671.614 440.26 670.728 437.953 670.721C426.263 670.692 414.57 670.692 402.879 670.721C400.515 670.725 399.751 671.513 399.712 673.893C399.658 677.021 399.762 680.153 399.661 683.277C399.611 684.832 400.224 685.183 401.658 685.169C407.892 685.103 414.13 685.14 420.364 685.14Z" fill="#494368"/>
<path d="M761.326 696.745C753.225 696.745 745.124 696.788 737.027 696.708C735.341 696.69 734.854 697.244 734.915 698.871C735.027 701.818 734.923 704.769 734.955 707.72C734.984 710.389 735.777 711.167 738.422 711.167C754.202 711.174 769.982 711.196 785.762 711.131C787.478 711.124 788.087 711.55 787.989 713.322C787.845 715.904 787.903 718.497 787.971 721.087C788.004 722.367 787.643 722.902 786.256 722.899C770.115 722.859 753.975 722.953 737.834 722.837C729.196 722.776 723.398 716.675 723.38 707.984C723.359 696.607 723.359 685.23 723.38 673.853C723.398 665.039 729.276 659.123 738.047 659.101C749.805 659.072 761.568 659.076 773.326 659.101C781.939 659.119 787.813 664.895 787.924 673.542C788.014 680.644 787.91 687.751 787.975 694.853C787.989 696.397 787.416 696.774 785.978 696.766C777.759 696.712 769.539 696.741 761.319 696.741L761.326 696.745ZM755.665 685.139C761.96 685.139 768.26 685.103 774.555 685.168C775.971 685.183 776.447 684.745 776.4 683.313C776.306 680.246 776.382 677.176 776.368 674.109C776.353 671.56 775.571 670.724 773.038 670.721C761.463 670.699 749.888 670.699 738.314 670.721C735.751 670.724 734.987 671.516 734.955 674.095C734.919 677.162 734.998 680.232 734.923 683.302C734.887 684.702 735.337 685.187 736.771 685.172C743.067 685.103 749.366 685.143 755.661 685.143L755.665 685.139Z" fill="#494368"/>
<path d="M464 706.542H475.16C475.276 706.708 475.395 706.798 475.402 706.9C475.802 711.185 475.849 711.229 480.173 711.229C491.214 711.229 502.259 711.229 513.301 711.229C516.169 711.229 516.897 710.491 516.915 707.583C516.93 705.175 516.937 702.766 516.915 700.358C516.89 697.732 516.058 696.893 513.456 696.889C501.932 696.882 490.411 696.85 478.886 696.897C472.396 696.922 467.769 694.065 464.962 688.217C464.732 687.733 464.544 687.208 464.447 686.684C463.405 681.129 463.312 675.505 464.335 669.998C465.485 663.799 471.232 659.235 477.517 659.192C490 659.105 502.483 659.065 514.966 659.21C523.33 659.307 529.849 667.452 528.22 675.534H517.254C517.146 675.39 517.088 675.346 517.077 675.296C516.544 672.354 514.772 670.884 511.762 670.884C500.84 670.884 489.917 670.884 478.995 670.884C476.162 670.884 475.499 671.556 475.488 674.388C475.481 676.916 475.47 679.447 475.492 681.975C475.514 684.355 476.371 685.208 478.782 685.212C490.605 685.223 502.429 685.194 514.249 685.234C521.261 685.255 527.164 689.798 528.105 696.719C528.76 701.555 528.742 706.621 528.097 711.46C527.2 718.212 521.193 722.917 514.396 722.949C502.213 723.007 490.029 723.029 477.849 722.942C469.29 722.881 462.764 715.156 464.004 706.542H464Z" fill="#494368"/>
<path d="M572.101 659.101C577.86 659.101 583.633 659.329 589.377 659.043C596.818 658.671 604.306 664.504 604.324 673.661C604.35 685.219 604.458 696.777 604.288 708.335C604.162 717.015 598.119 722.816 589.442 722.863C577.741 722.928 566.043 722.924 554.342 722.863C547.074 722.823 541.665 718.602 539.996 711.804C539.73 710.711 539.694 709.54 539.69 708.404C539.669 696.785 539.856 685.165 539.614 673.553C539.449 665.719 546.353 658.653 554.101 659.105C554.22 659.112 554.342 659.105 554.461 659.105C560.342 659.105 566.22 659.105 572.101 659.105V659.101ZM571.971 711.174C577.73 711.174 583.488 711.182 589.251 711.174C591.834 711.171 592.663 710.324 592.667 707.684C592.674 696.549 592.674 685.414 592.667 674.279C592.667 671.611 591.881 670.732 589.294 670.725C577.715 670.699 566.137 670.699 554.559 670.725C552.029 670.728 551.243 671.56 551.24 674.138C551.225 685.335 551.225 696.531 551.24 707.724C551.24 710.379 552.051 711.167 554.696 711.174C560.454 711.185 566.213 711.174 571.975 711.174H571.971Z" fill="#494368"/>
<defs>
<filter id="filter0_d_13_2" x="287.077" y="19.6686" width="404.42" height="475.279" filterUnits="userSpaceOnUse" color-interpolation-filters="sRGB">
<feFlood flood-opacity="0" result="BackgroundImageFix"/>
<feColorMatrix in="SourceAlpha" type="matrix" values="0 0 0 0 0 0 0 0 0 0 0 0 0 0 0 0 0 0 127 0" result="hardAlpha"/>
<feOffset dy="2"/>
<feGaussianBlur stdDeviation="8"/>
<feComposite in2="hardAlpha" operator="out"/>
<feColorMatrix type="matrix" values="0 0 0 0 0 0 0 0 0 0 0 0 0 0 0 0 0 0 0.15 0"/>
<feBlend mode="normal" in2="BackgroundImageFix" result="effect1_dropShadow_13_2"/>
<feBlend mode="normal" in="SourceGraphic" in2="effect1_dropShadow_13_2" result="shape"/>
</filter>
<linearGradient id="paint0_linear_13_2" x1="289.5" y1="74.5" x2="698.42" y2="163.561" gradientUnits="userSpaceOnUse">
<stop stop-color="#4C7CA8"/>
<stop offset="1" stop-color="#332251"/>
</linearGradient>
<linearGradient id="paint1_linear_13_2" x1="279.38" y1="97.9335" x2="692.957" y2="420.619" gradientUnits="userSpaceOnUse">
<stop stop-color="#49C7FF"/>
<stop offset="1" stop-color="#BD36FF"/>
</linearGradient>
<linearGradient id="paint2_linear_13_2" x1="396.913" y1="129.393" x2="501.085" y2="235.157" gradientUnits="userSpaceOnUse">
<stop stop-color="#41D1FF"/>
<stop offset="1" stop-color="#BD34FE"/>
</linearGradient>
<linearGradient id="paint3_linear_13_2" x1="467.08" y1="110.121" x2="498.241" y2="216.3" gradientUnits="userSpaceOnUse">
<stop stop-color="#FFEA83"/>
<stop offset="0.083" stop-color="#FFDD35"/>
<stop offset="1" stop-color="#FFA800"/>
</linearGradient>
<linearGradient id="paint4_linear_13_2" x1="399.881" y1="313.423" x2="452.8" y2="448.397" gradientUnits="userSpaceOnUse">
<stop stop-color="#49C7FF"/>
<stop offset="1" stop-color="#BD36FF"/>
</linearGradient>
<linearGradient id="paint5_linear_13_2" x1="437.374" y1="321.852" x2="573.604" y2="366.772" gradientUnits="userSpaceOnUse">
<stop stop-color="#49C7FF"/>
<stop offset="1" stop-color="#BD36FF"/>
</linearGradient>
</defs>
</svg>
